<svg width="418" height="167" viewBox="0 0 418 167" fill="none" xmlns="http://www.w3.org/2000/svg">
<path d="M4 33.4774V4H30.8376" stroke="white" stroke-width="7.03937"/>
<path d="M4 133.348V162.826H30.8376" stroke="white" stroke-width="7.03937"/>
<path d="M413.603 132.468V161.946H386.766" stroke="white" stroke-width="7.03937"/>
<path d="M413.603 33.4774V4H386.766" stroke="white" stroke-width="7.03937"/>
<rect x="20.2811" y="22.0386" width="376.606" height="127.589" fill="#040F85" stroke="white" stroke-width="6.15945"/>
<path d="M100.039 40.1487H77.1517V73.8779H83.3193L83.2711 45.449H99.9911L100.039 40.1487ZM117.043 74.3597C127.499 74.3597 135.208 67.0357 135.208 57.0133C135.208 46.9909 127.499 39.6669 117.043 39.6669C106.587 39.6669 98.8772 47.0391 98.8772 57.0133C98.8772 66.9875 106.587 74.3597 117.043 74.3597ZM117.043 68.8667C110.249 68.8667 105.189 63.9037 105.189 57.0133C105.189 50.1229 110.249 45.1599 117.043 45.1599C123.837 45.1599 128.896 50.1229 128.896 57.0133C128.896 63.9037 123.837 68.8667 117.043 68.8667ZM145.192 40.1487L144.71 54.1222C144.373 63.6146 143.12 68.6258 139.024 68.6258C138.494 68.6258 138.061 68.5776 137.579 68.433L137.145 73.8779C138.446 74.167 139.506 74.3597 140.566 74.3597C147.842 74.3597 149.818 67.1802 150.251 53.8813L150.54 45.449H163.839V73.8779H170.007V40.1487H145.192ZM195.107 74.3597C205.563 74.3597 213.273 67.0357 213.273 57.0133C213.273 46.9909 205.563 39.6669 195.107 39.6669C184.651 39.6669 176.942 47.0391 176.942 57.0133C176.942 66.9875 184.651 74.3597 195.107 74.3597ZM195.107 68.8667C188.313 68.8667 183.254 63.9037 183.254 57.0133C183.254 50.1229 188.313 45.1599 195.107 45.1599C201.901 45.1599 206.961 50.1229 206.961 57.0133C206.961 63.9037 201.901 68.8667 195.107 68.8667ZM242.411 56.3387C245.543 54.9895 247.374 52.4358 247.374 48.8219C247.374 43.2325 242.845 40.1487 235.328 40.1487H220.246V73.8779H236.244C244.628 73.8779 249.013 70.3604 249.013 64.5301C249.013 60.2898 246.652 57.4951 242.411 56.3387ZM226.414 44.9672H234.798C238.846 44.9672 241.014 46.6054 241.014 49.7856C241.014 52.9176 238.846 54.5559 234.798 54.5559H226.414V44.9672ZM236.051 69.0594H226.414V59.1334H236.051C240.388 59.1334 242.7 60.6753 242.7 64.0482C242.7 67.4211 240.388 69.0594 236.051 69.0594ZM279.855 40.1487V54.074H262.412V40.1487H256.148V73.8779H262.412V59.4225H279.855V73.8779H286.119V40.1487H279.855ZM301.845 68.6258V59.3261H318.131V54.1704H301.845V45.4008H320.203V40.1487H295.581V73.8779H320.877V68.6258H301.845Z" fill="white"/>
<path d="M110.694 99.1487L100.431 118.953L90.4564 99.1487H83.7588L97.2022 124.301L96.6722 125.12C95.2749 127.337 93.6366 128.252 91.661 128.252C90.6492 128.252 89.5891 128.011 88.3845 127.626L86.8426 132.541C88.529 133.263 90.2155 133.601 91.8056 133.601C95.9013 133.601 99.6115 131.288 102.213 126.373L116.862 99.1487H110.694ZM143.527 132.878H150.61L138.66 115.483L150.177 99.1487H143.527L133.842 113.267H127.385V99.1487H121.218V132.878H127.385V118.663H133.649L143.527 132.878ZM168.739 99.1487H154.862V132.878H161.126V123.145H168.739C177.605 123.145 183.098 118.567 183.098 111.147C183.098 103.678 177.605 99.1487 168.739 99.1487ZM168.45 117.844H161.126V104.449H168.45C173.943 104.449 176.786 106.906 176.786 111.147C176.786 115.387 173.943 117.844 168.45 117.844ZM213.061 132.878H219.614L204.388 99.1487H198.22L183.042 132.878H189.499L192.823 125.072H209.688L213.061 132.878ZM194.943 120.157L201.256 105.413L207.616 120.157H194.943ZM223.051 95.8722C224.69 95.8722 225.991 94.6676 225.991 92.9811C225.991 91.2465 224.69 90.0418 223.051 90.0418C221.461 90.0418 220.16 91.2465 220.16 92.9811C220.16 94.6676 221.461 95.8722 223.051 95.8722ZM232.399 95.8722C234.038 95.8722 235.339 94.6676 235.339 92.9811C235.339 91.2465 234.038 90.0418 232.399 90.0418C230.809 90.0418 229.508 91.2465 229.508 92.9811C229.508 94.6676 230.809 95.8722 232.399 95.8722ZM224.593 132.878H230.857V99.1487H224.593V132.878ZM263.88 99.1487V113.074H246.437V99.1487H240.173V132.878H246.437V118.423H263.88V132.878H270.144V99.1487H263.88ZM305.336 132.878H311.889L296.663 99.1487H290.495L275.317 132.878H281.774L285.098 125.072H301.963L305.336 132.878ZM287.219 120.157L293.531 105.413L299.891 120.157H287.219Z" fill="#FFE600"/>
</svg>
